<svg width="377" height="270" viewBox="0 0 377 270" fill="none" xmlns="http://www.w3.org/2000/svg">
<g id="beer 1" clip-path="url(#clip0)">
<g id="Group 11">
<path id="Vector" d="M172.952 233.121C174.869 228.526 175.077 223.336 173.536 218.586C173.383 218.115 174.082 217.889 174.235 218.359C175.83 223.305 175.602 228.706 173.597 233.483C173.406 233.938 172.761 233.574 172.952 233.121Z" fill="white"/>
<path id="Vector_2" d="M319.785 232.971C319.204 233.096 318.602 233.068 318.034 232.887C317.465 232.706 316.948 232.379 316.529 231.934C316.315 231.706 316.009 232.087 316.222 232.314C316.687 232.802 317.259 233.163 317.886 233.364C318.514 233.565 319.178 233.601 319.822 233.468C319.883 233.461 319.94 233.429 319.981 233.38C320.021 233.33 320.042 233.266 320.039 233.2C320.034 233.134 320.004 233.073 319.957 233.03C319.909 232.987 319.848 232.966 319.785 232.971Z" fill="white"/>
<path id="Vector_3" d="M38.2062 81.0145C42.9554 81.0707 47.5503 79.232 51.0744 75.8652C51.4233 75.5313 51.895 76.1214 51.5465 76.4549C47.873 79.9513 43.0877 81.8544 38.1456 81.7844C37.6745 81.7774 37.7377 81.0075 38.2062 81.0145H38.2062Z" fill="white"/>
<path id="Vector_4" d="M267.61 269.034H190.695C186.397 269.029 182.275 267.221 179.235 264.007C176.196 260.792 174.486 256.435 174.481 251.889V126.47C174.486 121.924 176.196 117.566 179.235 114.352C182.275 111.138 186.397 109.33 190.695 109.325H267.61C271.909 109.33 276.031 111.138 279.07 114.352C282.11 117.566 283.82 121.924 283.825 126.47V251.889C283.82 256.435 282.11 260.792 279.07 264.007C276.031 267.221 271.909 269.029 267.61 269.034V269.034Z" fill="white"/>
<path id="Vector_5" d="M259.271 256.579H199.035C194.798 256.574 190.735 254.792 187.739 251.624C184.743 248.455 183.057 244.16 183.052 239.679V138.68C183.057 134.199 184.743 129.904 187.739 126.735C190.735 123.567 194.798 121.785 199.035 121.78H259.271C263.508 121.785 267.571 123.567 270.567 126.735C273.563 129.904 275.249 134.199 275.254 138.68V239.679C275.249 244.16 273.563 248.455 270.567 251.624C267.571 254.792 263.508 256.574 259.271 256.579V256.579Z" fill="#C3B7AC"/>
<path id="Vector_6" d="M283.581 219.82H175.163V246.275H283.581V219.82Z" fill="#3F3D56"/>
<path id="Vector_7" d="M21.4533 156.316L3.09472 131.358C1.90933 129.747 1.03573 127.904 0.52379 125.936C0.0118527 123.968 -0.128386 121.912 0.111074 119.886C0.350534 117.861 0.965008 115.905 1.9194 114.13C2.8738 112.356 4.14943 110.797 5.67344 109.544L80.0323 48.3911C84.3836 44.8063 89.6374 42.6563 95.1374 42.2096L101.409 41.6961L155.411 8.25105C154.937 7.1592 154.859 5.92136 155.193 4.77295C155.526 3.62454 156.247 2.64568 157.218 2.02255C158.189 1.39942 159.343 1.1755 160.46 1.39336C161.578 1.61122 162.58 2.25568 163.277 3.20415L178.638 24.0863C179.337 25.0366 179.681 26.226 179.603 27.4274C179.526 28.6287 179.033 29.7578 178.218 30.5989C177.403 31.44 176.323 31.9342 175.186 31.9871C174.048 32.04 172.932 31.6478 172.05 30.8855L127.876 77.5942C126.935 85.3699 123.111 92.4321 117.247 97.2278L42.0834 159.043C40.5595 160.296 38.8171 161.22 36.9556 161.761C35.0941 162.302 33.15 162.451 31.2343 162.198C29.3185 161.944 27.4688 161.295 25.7905 160.285C24.1123 159.276 22.6385 157.928 21.4533 156.316V156.316Z" fill="white"/>
<path id="Vector_8" d="M267.61 269.034H190.695C186.397 269.029 182.275 267.221 179.235 264.007C176.196 260.792 174.486 256.435 174.481 251.889V126.47C174.486 121.924 176.196 117.566 179.235 114.352C182.275 111.138 186.397 109.33 190.695 109.325H267.61C271.909 109.33 276.031 111.138 279.07 114.352C282.11 117.566 283.82 121.924 283.825 126.47V251.889C283.82 256.435 282.11 260.792 279.07 264.007C276.031 267.221 271.909 269.029 267.61 269.034V269.034ZM190.695 110.305C186.642 110.309 182.756 112.014 179.89 115.045C177.024 118.075 175.412 122.184 175.408 126.47V251.889C175.412 256.175 177.024 260.284 179.89 263.314C182.756 266.345 186.642 268.049 190.695 268.054H267.61C271.664 268.049 275.549 266.345 278.416 263.314C281.282 260.284 282.894 256.175 282.898 251.889V126.47C282.894 122.184 281.282 118.075 278.416 115.045C275.549 112.014 271.664 110.309 267.61 110.305H190.695Z" fill="#3F3D56"/>
<path id="Vector_9" d="M176.912 5.97194C181.076 4.17257 185.591 3.46588 190.069 3.91228C194.548 4.35868 198.858 5.94488 202.631 8.53536C210.391 13.8034 216.173 23.2944 218.104 33.9353C219.051 39.1502 219.393 45.2158 222.843 48.4622C225.37 50.8399 228.811 50.9019 231.852 52.0514C240.846 55.451 245.487 68.648 244.178 80.1088C242.868 91.5696 237.036 101.44 230.777 110.081C232.767 105.438 230.183 99.4157 226.403 96.9789C222.624 94.5422 218.119 94.747 213.864 95.1502C209.61 95.5534 205.176 96.0644 201.208 94.1316C194.429 90.829 190.997 81.259 190.485 72.3117C189.973 63.3643 191.665 54.4477 191.786 45.4795C191.907 36.5112 190.024 26.6868 184.166 21.3461C181.472 18.8899 178.138 17.5797 175.632 14.8389C173.126 12.098 171.781 6.89523 174.122 3.94252" fill="#C3B7AC"/>
<path id="Vector_10" d="M271.071 105.182C270.828 105.182 270.588 105.191 270.349 105.205C271.177 102.74 271.296 100.071 270.69 97.5351C270.084 94.9989 268.78 92.7095 266.944 90.9564C265.108 89.2032 262.822 88.0649 260.374 87.6854C257.926 87.3058 255.427 87.702 253.192 88.8238C251.187 82.8559 246.877 78.7271 241.882 78.7271C236.886 78.7271 232.577 82.8559 230.571 88.8238C228.893 87.982 227.059 87.5453 225.202 87.5453C223.345 87.5453 221.511 87.982 219.833 88.8238C217.828 82.8559 213.518 78.7271 208.522 78.7271C203.527 78.7271 199.217 82.8559 197.212 88.8238C194.977 87.7016 192.477 87.3055 190.028 87.6856C187.58 88.0657 185.293 89.2049 183.457 90.9592C181.621 92.7135 180.318 95.004 179.713 97.5413C179.108 100.079 179.228 102.748 180.058 105.214C179.818 105.194 179.577 105.182 179.333 105.182C172.424 105.182 166.823 113.078 166.823 122.818C166.823 132.559 172.424 140.455 179.333 140.455C185.023 140.455 189.823 135.097 191.34 127.766C193.167 129.695 195.513 130.98 198.058 131.444C200.602 131.908 203.22 131.529 205.552 130.358C207.557 136.326 211.867 140.455 216.862 140.455C222.552 140.455 227.352 135.097 228.869 127.766C230.696 129.695 233.042 130.98 235.587 131.444C238.131 131.908 240.749 131.529 243.081 130.358C245.086 136.326 249.396 140.455 254.391 140.455C259.387 140.455 263.696 136.326 265.702 130.358C267.397 131.21 269.251 131.647 271.128 131.638C273.004 131.629 274.855 131.174 276.543 130.306C278.23 129.438 279.711 128.179 280.877 126.624C282.042 125.068 282.861 123.256 283.274 121.32C283.687 119.384 283.683 117.375 283.262 115.442C282.84 113.508 282.013 111.699 280.841 110.149C279.669 108.599 278.183 107.348 276.491 106.488C274.8 105.629 272.948 105.182 271.071 105.182V105.182Z" fill="#F0F0F0"/>
<path id="Vector_11" d="M204.353 142.905C205.632 142.905 206.669 141.808 206.669 140.455C206.669 139.102 205.632 138.006 204.353 138.006C203.073 138.006 202.036 139.102 202.036 140.455C202.036 141.808 203.073 142.905 204.353 142.905Z" fill="white"/>
<path id="Vector_12" d="M218.716 184.547C219.995 184.547 221.032 183.45 221.032 182.097C221.032 180.744 219.995 179.647 218.716 179.647C217.436 179.647 216.399 180.744 216.399 182.097C216.399 183.45 217.436 184.547 218.716 184.547Z" fill="white"/>
<path id="Vector_13" d="M233.542 156.132C234.821 156.132 235.858 155.035 235.858 153.683C235.858 152.33 234.821 151.233 233.542 151.233C232.262 151.233 231.225 152.33 231.225 153.683C231.225 155.035 232.262 156.132 233.542 156.132Z" fill="white"/>
<path id="Vector_14" d="M216.862 164.95C218.142 164.95 219.179 163.854 219.179 162.501C219.179 161.148 218.142 160.051 216.862 160.051C215.583 160.051 214.546 161.148 214.546 162.501C214.546 163.854 215.583 164.95 216.862 164.95Z" fill="white"/>
<path id="Vector_15" d="M246.051 191.405C247.331 191.405 248.368 190.309 248.368 188.956C248.368 187.603 247.331 186.506 246.051 186.506C244.772 186.506 243.735 187.603 243.735 188.956C243.735 190.309 244.772 191.405 246.051 191.405Z" fill="white"/>
<path id="Vector_16" d="M254.391 142.905C255.671 142.905 256.708 141.808 256.708 140.455C256.708 139.102 255.671 138.006 254.391 138.006C253.112 138.006 252.075 139.102 252.075 140.455C252.075 141.808 253.112 142.905 254.391 142.905Z" fill="white"/>
<path id="Vector_17" d="M283.362 229.128V228.148C294.823 228.148 305.815 223.334 313.919 214.765C322.023 206.195 326.576 194.573 326.576 182.454C326.576 170.335 322.023 158.712 313.919 150.143C305.815 141.574 294.823 136.76 283.362 136.76V135.78C295.069 135.78 306.296 140.697 314.574 149.45C322.852 158.203 327.503 170.075 327.503 182.454C327.503 194.833 322.852 206.704 314.574 215.457C306.296 224.21 295.069 229.128 283.362 229.128V229.128Z" fill="#3F3D56"/>
<path id="Vector_18" d="M283.581 220.31H283.117V219.074H284.044V219.326C292.786 219.197 301.124 215.418 307.241 208.813C313.358 202.209 316.756 193.314 316.695 184.07C316.634 174.826 313.118 165.983 306.914 159.469C300.711 152.956 292.323 149.3 283.581 149.3V148.321C292.609 148.321 301.267 152.113 307.651 158.863C314.035 165.613 317.622 174.769 317.622 184.315C317.622 193.861 314.035 203.017 307.651 209.767C301.267 216.517 292.609 220.31 283.581 220.31V220.31Z" fill="#3F3D56"/>
<path id="Vector_19" d="M25.3318 150.318L9.54768 128.86C8.54195 127.493 7.80075 125.93 7.3664 124.26C6.93205 122.59 6.81306 120.846 7.01624 119.127C7.21941 117.408 7.74076 115.749 8.55052 114.243C9.36028 112.738 10.4426 111.416 11.7356 110.353L75.6669 57.7751C79.3823 54.7141 83.8682 52.8783 88.5644 52.4968L93.9947 52.0522L144.05 21.0516L157.506 39.3457L116.541 82.6616C116.149 85.96 115.145 89.1441 113.586 92.0312C112.028 94.9182 109.945 97.4513 107.458 99.485L42.8351 152.631C41.5422 153.695 40.0638 154.479 38.4845 154.938C36.9051 155.397 35.2556 155.523 33.6303 155.308C32.0049 155.093 30.4355 154.542 29.0116 153.686C27.5877 152.83 26.3373 151.685 25.3318 150.318V150.318Z" fill="#C3B7AC"/>
<path id="Vector_20" d="M174.158 24.6794C175.694 25.1352 177.666 24.6778 179.32 23.3181C181.743 21.3248 182.562 18.1507 181.148 16.2285C180.891 15.8802 180.572 15.5882 180.209 15.369C180.39 14.7796 180.436 14.1534 180.346 13.5412C180.255 12.929 180.028 12.3482 179.685 11.8458C179.502 11.5981 179.287 11.3788 179.046 11.1943C180.64 8.86101 181.238 6.77534 180.417 5.65849C180.178 5.38367 179.884 5.16945 179.556 5.0319C179.229 4.89436 178.876 4.83704 178.524 4.86425C178.64 3.9112 178.4 2.94791 177.857 2.17811C176.663 0.554998 174.259 0.349293 172.081 1.52314C172.055 1.48431 172.033 1.44267 172.005 1.40471C170.591 -0.51749 167.48 -0.459732 165.056 1.53363C163.843 2.49055 162.986 3.86756 162.635 5.42431C161.122 5.40071 159.649 5.93982 158.473 6.94755C156.049 8.9409 155.231 12.115 156.645 14.0372C156.707 14.1222 156.777 14.1983 156.846 14.2755L156.817 14.307C156.762 14.2156 156.708 14.1239 156.645 14.0372C155.231 12.115 152.12 12.1727 149.696 14.1661C148.483 15.123 147.626 16.5 147.275 18.0568C145.762 18.0332 144.289 18.5723 143.113 19.58C140.689 21.5734 139.87 24.7475 141.284 26.6697C142.698 28.5919 145.809 28.5341 148.233 26.5407C147.67 27.0021 147.229 27.6082 146.951 28.3013C146.673 28.9944 146.568 29.7512 146.646 30.4995C146.723 31.2478 146.981 31.9626 147.394 32.5756C147.807 33.1886 148.362 33.6794 149.006 34.0009C148.494 35.3042 148.444 36.4025 148.965 37.1107C149.786 38.2276 151.845 38.1284 154.376 37.0689C154.486 37.361 154.634 37.6355 154.816 37.8841C156.23 39.8063 159.341 39.7486 161.765 37.7552C162.978 36.7983 163.835 35.4214 164.186 33.8647C165.699 33.8881 167.172 33.349 168.348 32.3413C168.906 31.8838 169.397 31.3417 169.806 30.7325C170.465 30.4638 171.083 30.0938 171.639 29.6343C173.293 28.2746 174.197 26.366 174.158 24.6794Z" fill="#F0F0F0"/>
<path id="Vector_21" d="M21.4533 156.316L3.09472 131.358C1.90933 129.747 1.03573 127.904 0.52379 125.936C0.0118527 123.968 -0.128386 121.912 0.111074 119.886C0.350534 117.861 0.965008 115.905 1.9194 114.13C2.8738 112.356 4.14943 110.797 5.67344 109.544L80.0323 48.3911C84.3836 44.8063 89.6374 42.6563 95.1374 42.2096L101.409 41.6961L155.411 8.25105C154.937 7.1592 154.859 5.92136 155.193 4.77295C155.526 3.62454 156.247 2.64568 157.218 2.02255C158.189 1.39942 159.343 1.1755 160.46 1.39336C161.578 1.61122 162.58 2.25568 163.277 3.20415L178.638 24.0863C179.337 25.0366 179.681 26.226 179.603 27.4274C179.526 28.6287 179.033 29.7578 178.218 30.5989C177.403 31.44 176.323 31.9342 175.186 31.9871C174.048 32.04 172.932 31.6478 172.05 30.8855L127.876 77.5942C126.935 85.3699 123.111 92.4321 117.247 97.2278L42.0834 159.043C40.5595 160.296 38.8171 161.22 36.9556 161.761C35.0941 162.302 33.15 162.451 31.2343 162.198C29.3185 161.944 27.4688 161.295 25.7905 160.285C24.1123 159.276 22.6385 157.928 21.4533 156.316V156.316ZM162.546 3.80569C161.969 3.02012 161.13 2.49617 160.201 2.34019C159.272 2.18421 158.322 2.40787 157.543 2.96579C156.764 3.52372 156.215 4.37411 156.007 5.34436C155.799 6.31461 155.949 7.33205 156.425 8.19017L156.66 8.61311L101.693 42.6555L95.2091 43.1864C89.8901 43.6184 84.8093 45.6977 80.6012 49.1646L6.24234 110.318C4.81438 111.492 3.61914 112.952 2.72489 114.615C1.83065 116.277 1.2549 118.11 1.03053 120.008C0.806168 121.906 0.937578 123.832 1.41726 125.676C1.89693 127.52 2.71548 129.247 3.82617 130.756L22.1848 155.715C23.2952 157.224 24.6761 158.488 26.2486 159.434C27.821 160.379 29.5542 160.988 31.3492 161.225C33.1442 161.463 34.9657 161.324 36.7099 160.816C38.4541 160.309 40.0867 159.444 41.5145 158.269L116.678 96.4544C119.507 94.1412 121.874 91.2576 123.641 87.9707C125.409 84.6837 126.543 81.0587 126.977 77.3053L126.996 77.1385L172.034 29.5164L172.362 29.8635C173.029 30.5688 173.924 30.9788 174.867 31.01C175.81 31.0411 176.728 30.691 177.435 30.0311C178.142 29.3712 178.584 28.451 178.672 27.4582C178.759 26.4654 178.485 25.4747 177.906 24.6879L162.546 3.80569Z" fill="#3F3D56"/>
<path id="Vector_22" d="M63.6583 62.4781L37.3262 84.1338L73.1672 132.859L99.4993 111.203L63.6583 62.4781Z" fill="#3F3D56"/>
<path id="Vector_23" d="M37.9763 84.2197L73.2485 132.171L98.8492 111.117L63.577 63.1655L37.9763 84.2197Z" fill="#3F3D56"/>
<path id="Vector_24" d="M140.918 40.5915C142.198 40.5915 143.235 39.4949 143.235 38.142C143.235 36.7892 142.198 35.6925 140.918 35.6925C139.639 35.6925 138.602 36.7892 138.602 38.142C138.602 39.4949 139.639 40.5915 140.918 40.5915Z" fill="white"/>
<path id="Vector_25" d="M122.632 44.4586C123.912 44.4586 124.949 43.3619 124.949 42.0091C124.949 40.6563 123.912 39.5596 122.632 39.5596C121.353 39.5596 120.316 40.6563 120.316 42.0091C120.316 43.3619 121.353 44.4586 122.632 44.4586Z" fill="white"/>
<path id="Vector_26" d="M123.729 60.3136C125.009 60.3136 126.046 59.2169 126.046 57.8641C126.046 56.5112 125.009 55.4146 123.729 55.4146C122.45 55.4146 121.413 56.5112 121.413 57.8641C121.413 59.2169 122.45 60.3136 123.729 60.3136Z" fill="white"/>
<path id="Vector_27" d="M105.443 64.1808C106.723 64.1808 107.76 63.0841 107.76 61.7313C107.76 60.3784 106.723 59.2817 105.443 59.2817C104.164 59.2817 103.127 60.3784 103.127 61.7313C103.127 63.0841 104.164 64.1808 105.443 64.1808Z" fill="white"/>
<path id="Vector_28" d="M200.646 35.1256C201.925 35.1256 202.963 34.0289 202.963 32.6761C202.963 31.3233 201.925 30.2266 200.646 30.2266C199.367 30.2266 198.329 31.3233 198.329 32.6761C198.329 34.0289 199.367 35.1256 200.646 35.1256Z" fill="white"/>
<path id="Vector_29" d="M208.986 48.353C210.265 48.353 211.302 47.2563 211.302 45.9035C211.302 44.5507 210.265 43.454 208.986 43.454C207.706 43.454 206.669 44.5507 206.669 45.9035C206.669 47.2563 207.706 48.353 208.986 48.353Z" fill="white"/>
<path id="Vector_30" d="M208.986 70.3987C210.265 70.3987 211.302 69.302 211.302 67.9492C211.302 66.5963 210.265 65.4996 208.986 65.4996C207.706 65.4996 206.669 66.5963 206.669 67.9492C206.669 69.302 207.706 70.3987 208.986 70.3987Z" fill="white"/>
<path id="droplet2" d="M175.207 85.0027C172.644 85.0875 164.435 85.656 160.171 89.4432C155.077 93.9676 155.077 98.2642 157.545 101.372C160.014 104.48 164.016 105.222 169.111 100.697C173.429 96.8622 175.372 88.2437 175.864 85.706L175.207 85.0027Z" fill="#C3B7AC"/>
<path id="droplet1" d="M232.074 13.6077C231.451 16.238 229.729 24.7427 232.01 30.1141C234.737 36.531 238.646 37.7038 242.147 36.0408C245.648 34.3778 247.416 30.5091 244.69 24.0919C242.379 18.6524 235.068 14.3243 232.893 13.1314L232.074 13.6077Z" fill="#C3B7AC"/>
<path id="droplet3" d="M289.686 90.5965C288.439 92.9653 284.684 100.704 285.567 106.518C286.622 113.464 290.109 115.671 293.899 115.027C297.688 114.383 300.346 111.133 299.291 104.188C298.397 98.2999 292.401 92.1112 290.594 90.3616L289.686 90.5965Z" fill="#C3B7AC"/>
<path id="Vector_31" d="M377 269.417C377 269.494 376.985 269.57 376.957 269.641C376.929 269.712 376.888 269.776 376.836 269.83C376.785 269.884 376.724 269.927 376.656 269.956C376.589 269.985 376.517 270 376.444 270H76.5406C76.3944 270 76.2541 269.939 76.1507 269.829C76.0473 269.72 75.9893 269.572 75.9893 269.417C75.9893 269.262 76.0473 269.114 76.1507 269.005C76.2541 268.895 76.3944 268.834 76.5406 268.834H376.444C376.517 268.834 376.589 268.848 376.656 268.878C376.724 268.907 376.785 268.95 376.836 269.004C376.888 269.058 376.929 269.122 376.957 269.193C376.985 269.264 377 269.34 377 269.417V269.417Z" fill="#60CD8E"/>
<path id="Beer Broker" d="M195.714 238V228.758H198.736C199.739 228.758 200.492 228.965 200.996 229.38C201.503 229.795 201.757 230.408 201.757 231.221C201.757 231.652 201.635 232.035 201.389 232.37C201.144 232.7 200.809 232.956 200.386 233.138C200.886 233.277 201.279 233.544 201.567 233.938C201.859 234.327 202.005 234.792 202.005 235.334C202.005 236.163 201.736 236.815 201.199 237.289C200.661 237.763 199.902 238 198.92 238H195.714ZM196.933 233.677V237.003H198.945C199.512 237.003 199.959 236.857 200.285 236.565C200.615 236.269 200.78 235.863 200.78 235.347C200.78 234.234 200.175 233.677 198.964 233.677H196.933ZM196.933 232.7H198.774C199.307 232.7 199.732 232.566 200.05 232.3C200.371 232.033 200.532 231.671 200.532 231.214C200.532 230.707 200.384 230.338 200.088 230.11C199.792 229.877 199.341 229.761 198.736 229.761H196.933V232.7ZM206.48 238.127C205.549 238.127 204.792 237.822 204.208 237.213C203.624 236.599 203.332 235.78 203.332 234.756V234.541C203.332 233.859 203.461 233.252 203.719 232.719C203.981 232.181 204.345 231.762 204.811 231.462C205.28 231.157 205.788 231.005 206.334 231.005C207.227 231.005 207.921 231.299 208.416 231.887C208.911 232.475 209.159 233.318 209.159 234.414V234.902H204.506C204.523 235.579 204.72 236.127 205.096 236.546C205.477 236.961 205.959 237.168 206.543 237.168C206.958 237.168 207.309 237.084 207.597 236.915C207.885 236.745 208.137 236.521 208.353 236.242L209.07 236.8C208.494 237.685 207.631 238.127 206.48 238.127ZM206.334 231.97C205.86 231.97 205.462 232.143 205.141 232.49C204.819 232.833 204.62 233.315 204.544 233.938H207.984V233.849C207.951 233.252 207.79 232.791 207.502 232.465C207.214 232.135 206.825 231.97 206.334 231.97ZM213.374 238.127C212.443 238.127 211.685 237.822 211.101 237.213C210.517 236.599 210.225 235.78 210.225 234.756V234.541C210.225 233.859 210.354 233.252 210.612 232.719C210.875 232.181 211.239 231.762 211.704 231.462C212.174 231.157 212.682 231.005 213.228 231.005C214.12 231.005 214.814 231.299 215.31 231.887C215.805 232.475 216.052 233.318 216.052 234.414V234.902H211.399C211.416 235.579 211.613 236.127 211.99 236.546C212.371 236.961 212.853 237.168 213.437 237.168C213.852 237.168 214.203 237.084 214.491 236.915C214.778 236.745 215.03 236.521 215.246 236.242L215.963 236.8C215.388 237.685 214.525 238.127 213.374 238.127ZM213.228 231.97C212.754 231.97 212.356 232.143 212.034 232.49C211.713 232.833 211.514 233.315 211.438 233.938H214.878V233.849C214.844 233.252 214.683 232.791 214.396 232.465C214.108 232.135 213.718 231.97 213.228 231.97ZM220.737 232.186C220.559 232.156 220.367 232.141 220.159 232.141C219.389 232.141 218.866 232.469 218.591 233.125V238H217.417V231.132H218.56L218.579 231.925C218.964 231.312 219.51 231.005 220.216 231.005C220.445 231.005 220.618 231.035 220.737 231.094V232.186ZM225.231 238V228.758H228.252C229.255 228.758 230.009 228.965 230.512 229.38C231.02 229.795 231.274 230.408 231.274 231.221C231.274 231.652 231.151 232.035 230.906 232.37C230.66 232.7 230.326 232.956 229.903 233.138C230.402 233.277 230.796 233.544 231.083 233.938C231.375 234.327 231.521 234.792 231.521 235.334C231.521 236.163 231.253 236.815 230.715 237.289C230.178 237.763 229.418 238 228.437 238H225.231ZM226.45 233.677V237.003H228.462C229.029 237.003 229.475 236.857 229.801 236.565C230.131 236.269 230.296 235.863 230.296 235.347C230.296 234.234 229.691 233.677 228.481 233.677H226.45ZM226.45 232.7H228.291C228.824 232.7 229.249 232.566 229.566 232.3C229.888 232.033 230.049 231.671 230.049 231.214C230.049 230.707 229.901 230.338 229.604 230.11C229.308 229.877 228.858 229.761 228.252 229.761H226.45V232.7ZM236.466 232.186C236.289 232.156 236.096 232.141 235.889 232.141C235.118 232.141 234.596 232.469 234.321 233.125V238H233.146V231.132H234.289L234.308 231.925C234.693 231.312 235.239 231.005 235.946 231.005C236.174 231.005 236.348 231.035 236.466 231.094V232.186ZM237.114 234.502C237.114 233.83 237.245 233.224 237.507 232.687C237.774 232.15 238.142 231.735 238.612 231.443C239.086 231.151 239.625 231.005 240.23 231.005C241.166 231.005 241.921 231.329 242.497 231.976C243.076 232.624 243.366 233.485 243.366 234.56V234.642C243.366 235.311 243.237 235.912 242.979 236.445C242.725 236.974 242.359 237.386 241.881 237.683C241.407 237.979 240.861 238.127 240.243 238.127C239.312 238.127 238.557 237.803 237.977 237.156C237.402 236.508 237.114 235.651 237.114 234.585V234.502ZM238.294 234.642C238.294 235.404 238.47 236.015 238.821 236.477C239.177 236.938 239.651 237.168 240.243 237.168C240.84 237.168 241.314 236.936 241.665 236.47C242.016 236 242.192 235.345 242.192 234.502C242.192 233.749 242.012 233.14 241.652 232.674C241.297 232.205 240.823 231.97 240.23 231.97C239.651 231.97 239.183 232.2 238.828 232.662C238.472 233.123 238.294 233.783 238.294 234.642ZM246.756 234.82L246.02 235.588V238H244.845V228.25H246.02V234.147L246.648 233.392L248.787 231.132H250.215L247.543 234.001L250.526 238H249.149L246.756 234.82ZM254.151 238.127C253.22 238.127 252.462 237.822 251.878 237.213C251.294 236.599 251.002 235.78 251.002 234.756V234.541C251.002 233.859 251.132 233.252 251.39 232.719C251.652 232.181 252.016 231.762 252.481 231.462C252.951 231.157 253.459 231.005 254.005 231.005C254.898 231.005 255.592 231.299 256.087 231.887C256.582 232.475 256.83 233.318 256.83 234.414V234.902H252.177C252.194 235.579 252.39 236.127 252.767 236.546C253.148 236.961 253.63 237.168 254.214 237.168C254.629 237.168 254.98 237.084 255.268 236.915C255.556 236.745 255.808 236.521 256.023 236.242L256.741 236.8C256.165 237.685 255.302 238.127 254.151 238.127ZM254.005 231.97C253.531 231.97 253.133 232.143 252.812 232.49C252.49 232.833 252.291 233.315 252.215 233.938H255.655V233.849C255.621 233.252 255.461 232.791 255.173 232.465C254.885 232.135 254.496 231.97 254.005 231.97ZM261.514 232.186C261.336 232.156 261.144 232.141 260.937 232.141C260.166 232.141 259.644 232.469 259.369 233.125V238H258.194V231.132H259.337L259.356 231.925C259.741 231.312 260.287 231.005 260.994 231.005C261.222 231.005 261.396 231.035 261.514 231.094V232.186Z" fill="white"/>
</g>
</g>
<defs>
<clipPath id="clip0">
<rect width="377" height="270" fill="white"/>
</clipPath>
</defs>
</svg>
