<svg id="brewbroker_logo" xmlns="http://www.w3.org/2000/svg" width="165.645" height="26.908" viewBox="0 0 165.645 26.908">
  <path id="Path_3698" data-name="Path 3698" d="M3764.828-1897.528a9.165,9.165,0,0,1-3.981,2.257,3.338,3.338,0,0,1,.989,2.364,3.37,3.37,0,0,1-3.348,3.348h-3.349v-5.4h-4.5v9.907h7.854a7.876,7.876,0,0,0,7.853-7.853,7.8,7.8,0,0,0-1.513-4.621Zm-20.994-9.929v5.4h4.5v-9.907h-7.854a7.876,7.876,0,0,0-7.853,7.854,7.8,7.8,0,0,0,1.513,4.62,9.173,9.173,0,0,1,3.98-2.257,3.337,3.337,0,0,1-.989-2.363,3.37,3.37,0,0,1,3.348-3.349Z" transform="translate(-3732.633 1911.963)" fill="#60cd8e" fill-rule="evenodd"/>
  <path id="Path_3699" data-name="Path 3699" d="M3750.635-1911.962v9.907h4.5v-5.4h3.349a3.37,3.37,0,0,1,3.348,3.349,3.337,3.337,0,0,1-.989,2.363,3.335,3.335,0,0,1-2.359.985h-18a7.826,7.826,0,0,0-5.491,2.252,7.829,7.829,0,0,0-2.362,5.6,7.876,7.876,0,0,0,7.853,7.853h7.854v-9.907h-4.5v5.4h-3.349a3.37,3.37,0,0,1-3.348-3.348,3.37,3.37,0,0,1,3.348-3.349h18a7.826,7.826,0,0,0,5.491-2.252,7.918,7.918,0,0,0,.849-.98,7.8,7.8,0,0,0,1.513-4.62,7.877,7.877,0,0,0-7.853-7.854Z" transform="translate(-3732.633 1911.963)" fill="#60cd8e" fill-rule="evenodd"/>
  <path id="Path_3700" data-name="Path 3700" d="M3849.295-1898.984c2.135,0,3.514.312,4.425.989a4.486,4.486,0,0,1,1.666,3.67,4.175,4.175,0,0,1-1.094,2.967,3.913,3.913,0,0,1-1.821,1.041,3.881,3.881,0,0,1,2.056.937,4.052,4.052,0,0,1,1.25,3.123,4.519,4.519,0,0,1-1.8,3.8,6.6,6.6,0,0,1-3.878.833h-6.4v-17.36Zm-2.03,7.366h1.432c2.109,0,3.1-.755,3.1-2.368a2.133,2.133,0,0,0-1.041-1.952,5.444,5.444,0,0,0-2.239-.339h-1.25Zm0,7.366h1.745a3.707,3.707,0,0,0,2.316-.468,2.087,2.087,0,0,0,.859-1.848,2.12,2.12,0,0,0-.989-1.978,4.392,4.392,0,0,0-2.4-.417h-1.536Z" transform="translate(-3798.996 1904.208)" fill="#232624"/>
  <path id="Path_3701" data-name="Path 3701" d="M3880.951-1886.411v1.77a3.017,3.017,0,0,1,1.067-1.613,3.446,3.446,0,0,1,1.952-.573,2.621,2.621,0,0,1,.391.026v3.384c-.26-.026-.521-.052-.7-.052a2.681,2.681,0,0,0-2.213,1.093,3.361,3.361,0,0,0-.494,2.212v5.8h-3.305v-12.051Z" transform="translate(-3819.279 1896.944)" fill="#232624"/>
  <path id="Path_3702" data-name="Path 3702" d="M3899.381-1879.592a3.082,3.082,0,0,0,3.149,2.707,3.088,3.088,0,0,0,2.785-1.562l3.046.833a6.4,6.4,0,0,1-5.857,3.67,6.275,6.275,0,0,1-6.559-6.456,6.129,6.129,0,0,1,6.351-6.428,6.272,6.272,0,0,1,6.533,6.585l-.026.65Zm6.039-1.9a2.939,2.939,0,0,0-3.072-2.55,2.848,2.848,0,0,0-2.967,2.55Z" transform="translate(-3830.215 1896.944)" fill="#232624"/>
  <path id="Path_3703" data-name="Path 3703" d="M3946.98-1885.792l-3.93,12.051h-3.436l-2.108-7.392-2.16,7.392h-3.514l-3.878-12.051h3.357l2.42,7.339,2.109-7.339h3.175l2.161,7.339,2.446-7.339Z" transform="translate(-3849.34 1896.326)" fill="#232624"/>
  <path id="Path_3704" data-name="Path 3704" d="M3983.987-1898.984c2.134,0,3.514.312,4.425.989a4.486,4.486,0,0,1,1.665,3.67,4.177,4.177,0,0,1-1.093,2.967,3.92,3.92,0,0,1-1.822,1.041,3.883,3.883,0,0,1,2.056.937,4.055,4.055,0,0,1,1.249,3.123,4.519,4.519,0,0,1-1.8,3.8,6.6,6.6,0,0,1-3.878.833h-6.4v-17.36Zm-2.03,7.366h1.431c2.107,0,3.1-.755,3.1-2.368a2.132,2.132,0,0,0-1.041-1.952,5.445,5.445,0,0,0-2.238-.339h-1.25Zm0,7.366h1.744a3.709,3.709,0,0,0,2.316-.468,2.087,2.087,0,0,0,.859-1.848,2.12,2.12,0,0,0-.989-1.978,4.393,4.393,0,0,0-2.4-.417h-1.535Z" transform="translate(-3879.475 1904.208)" fill="#232624"/>
  <path id="Path_3705" data-name="Path 3705" d="M4015.643-1886.411v1.77a3.008,3.008,0,0,1,1.067-1.613,3.446,3.446,0,0,1,1.952-.573,2.605,2.605,0,0,1,.39.026v3.384c-.26-.026-.521-.052-.7-.052a2.677,2.677,0,0,0-2.211,1.093,3.358,3.358,0,0,0-.495,2.212v5.8h-3.306v-12.051Z" transform="translate(-3899.758 1896.944)" fill="#232624"/>
  <path id="Path_3706" data-name="Path 3706" d="M4043.755-1880.268a6.393,6.393,0,0,1-6.585,6.325,6.248,6.248,0,0,1-6.533-6.429,6.211,6.211,0,0,1,6.585-6.455A6.323,6.323,0,0,1,4043.755-1880.268Zm-9.787-.1a3.19,3.19,0,0,0,3.228,3.488,3.2,3.2,0,0,0,3.228-3.436c0-2.187-1.223-3.54-3.2-3.54A3.182,3.182,0,0,0,4033.968-1880.373Z" transform="translate(-3910.693 1896.944)" fill="#232624"/>
  <path id="Path_3707" data-name="Path 3707" d="M4070.023-1881.624h-3.306v-17.36h3.306v9.943l3.357-4.633h3.826l-4.086,5.778,4.086,6.273h-3.826l-3.357-5Z" transform="translate(-3932.252 1904.208)" fill="#232624"/>
  <path id="Path_3708" data-name="Path 3708" d="M4095.63-1879.592a3.082,3.082,0,0,0,3.149,2.707,3.09,3.09,0,0,0,2.785-1.562l3.045.833a6.4,6.4,0,0,1-5.856,3.67,6.276,6.276,0,0,1-6.559-6.456,6.129,6.129,0,0,1,6.351-6.428,6.272,6.272,0,0,1,6.533,6.585l-.026.65Zm6.038-1.9a2.936,2.936,0,0,0-3.07-2.55,2.848,2.848,0,0,0-2.968,2.55Z" transform="translate(-3947.475 1896.944)" fill="#232624"/>
  <path id="Path_3709" data-name="Path 3709" d="M4130.806-1886.411v1.77a3.011,3.011,0,0,1,1.067-1.613,3.449,3.449,0,0,1,1.952-.573,2.611,2.611,0,0,1,.391.026v3.384c-.26-.026-.52-.052-.7-.052a2.68,2.68,0,0,0-2.212,1.093,3.355,3.355,0,0,0-.494,2.212v5.8H4127.5v-12.051Z" transform="translate(-3968.57 1896.944)" fill="#232624"/>
</svg>
